<svg width="22" height="16" viewBox="0 0 22 16" fill="none" xmlns="http://www.w3.org/2000/svg">
<path fill-rule="evenodd" clip-rule="evenodd" d="M0.0625 1.75C0.0625 1.50136 0.161272 1.2629 0.337087 1.08709C0.512903 0.911272 0.75136 0.8125 1 0.8125H21C21.2486 0.8125 21.4871 0.911272 21.6629 1.08709C21.8387 1.2629 21.9375 1.50136 21.9375 1.75C21.9375 1.99864 21.8387 2.2371 21.6629 2.41291C21.4871 2.58873 21.2486 2.6875 21 2.6875H1C0.75136 2.6875 0.512903 2.58873 0.337087 2.41291C0.161272 2.2371 0.0625 1.99864 0.0625 1.75ZM0.0625 8C0.0625 7.75136 0.161272 7.5129 0.337087 7.33709C0.512903 7.16127 0.75136 7.0625 1 7.0625H14.75C14.9986 7.0625 15.2371 7.16127 15.4129 7.33709C15.5887 7.5129 15.6875 7.75136 15.6875 8C15.6875 8.24864 15.5887 8.4871 15.4129 8.66291C15.2371 8.83873 14.9986 8.9375 14.75 8.9375H1C0.75136 8.9375 0.512903 8.83873 0.337087 8.66291C0.161272 8.4871 0.0625 8.24864 0.0625 8ZM0.0625 14.25C0.0625 14.0014 0.161272 13.7629 0.337087 13.5871C0.512903 13.4113 0.75136 13.3125 1 13.3125H7.25C7.49864 13.3125 7.7371 13.4113 7.91291 13.5871C8.08873 13.7629 8.1875 14.0014 8.1875 14.25C8.1875 14.4986 8.08873 14.7371 7.91291 14.9129C7.7371 15.0887 7.49864 15.1875 7.25 15.1875H1C0.75136 15.1875 0.512903 15.0887 0.337087 14.9129C0.161272 14.7371 0.0625 14.4986 0.0625 14.25Z" fill="white"/>
</svg>
