<svg width="35" height="28" viewBox="0 0 35 28" fill="none" xmlns="http://www.w3.org/2000/svg">
<path d="M34.5 6.18652V22.7503C34.5001 24.0894 34.003 25.3779 33.1106 26.3522C32.2182 27.3265 30.9978 27.913 29.6992 27.9915L29.4 28.0003H5.6C4.29914 28.0003 3.04742 27.4887 2.10096 26.57C1.15449 25.6513 0.584817 24.3951 0.5085 23.0583L0.5 22.7503V6.18652L16.5565 17.2063L16.7537 17.3218C16.9861 17.4387 17.2413 17.4994 17.5 17.4994C17.7587 17.4994 18.0139 17.4387 18.2463 17.3218L18.4435 17.2063L34.5 6.18652Z" fill="white"/>
<path d="M29.4003 0C31.2363 0 32.8462 0.9975 33.7438 2.49725L17.5003 13.6447L1.25684 2.49725C1.68318 1.78469 2.26883 1.18738 2.96495 0.755107C3.66107 0.322837 4.44748 0.0681402 5.25864 0.0122499L5.60034 0H29.4003Z" fill="white"/>
</svg>
