<svg width="40" height="37" viewBox="0 0 40 37" fill="none" xmlns="http://www.w3.org/2000/svg">
<path d="M21.4135 0.541661L39.4102 17.1918C40.67 18.3574 39.7781 20.3498 37.9964 20.3498H35.9968V31.4499C35.9968 32.9219 35.3648 34.3336 34.2398 35.3744C33.1148 36.4153 31.5889 37 29.9979 37H27.9983V24.0499C27.9984 22.6342 27.4138 21.272 26.364 20.242C25.3143 19.212 23.8789 18.5921 22.3514 18.5091L21.9994 18.4998H18.0002C16.4092 18.4998 14.8833 19.0845 13.7583 20.1254C12.6333 21.1662 12.0013 22.5779 12.0013 24.0499V37H10.0016C8.41064 37 6.8848 36.4153 5.75979 35.3744C4.63478 34.3336 4.00275 32.9219 4.00275 31.4499V20.3498H2.00312C0.223454 20.3498 -0.67038 18.3574 0.589386 17.1918L18.5861 0.541661C18.961 0.194835 19.4696 0 19.9998 0C20.53 0 21.0385 0.194835 21.4135 0.541661ZM21.9994 22.1998C22.5298 22.1998 23.0384 22.3948 23.4134 22.7417C23.7884 23.0886 23.999 23.5592 23.999 24.0499V37H16.0005V24.0499C16.0006 23.5967 16.1804 23.1594 16.5059 22.8208C16.8313 22.4821 17.2798 22.2658 17.7662 22.2128L18.0002 22.1998H21.9994Z" fill="white"/>
</svg>
