<svg width="28" height="32" viewBox="0 0 28 32" fill="none" xmlns="http://www.w3.org/2000/svg">
<path d="M23 0.5C24.1935 0.5 25.3381 0.974106 26.182 1.81802C27.0259 2.66193 27.5 3.80653 27.5 5V23C27.5 24.1935 27.0259 25.3381 26.182 26.182C25.3381 27.0259 24.1935 27.5 23 27.5H5C3.80653 27.5 2.66193 27.0259 1.81802 26.182C0.974106 25.3381 0.5 24.1935 0.5 23V5C0.5 3.80653 0.974106 2.66193 1.81802 1.81802C2.66193 0.974106 3.80653 0.5 5 0.5H23ZM23 3.5H5C4.60218 3.5 4.22064 3.65804 3.93934 3.93934C3.65804 4.22064 3.5 4.60218 3.5 5V23C3.5 23.3978 3.65804 23.7794 3.93934 24.0607C4.22064 24.342 4.60218 24.5 5 24.5H23C23.3978 24.5 23.7794 24.342 24.0607 24.0607C24.342 23.7794 24.5 23.3978 24.5 23V5C24.5 4.60218 24.342 4.22064 24.0607 3.93934C23.7794 3.65804 23.3978 3.5 23 3.5ZM8 11C8.3674 11 8.72201 11.1349 8.99656 11.3791C9.27111 11.6232 9.44651 11.9596 9.4895 12.3245L9.5 12.5V20C9.49958 20.3823 9.35318 20.75 9.09073 21.0281C8.82827 21.3061 8.46957 21.4734 8.08791 21.4958C7.70625 21.5182 7.33043 21.394 7.03725 21.1486C6.74407 20.9032 6.55566 20.5551 6.5105 20.1755L6.5 20V12.5C6.5 12.1022 6.65804 11.7206 6.93934 11.4393C7.22064 11.158 7.60218 11 8 11ZM12.5 9.5C12.8513 9.49995 13.1915 9.62319 13.4612 9.84824C13.7309 10.0733 13.9131 10.3859 13.976 10.7315C14.2781 10.557 14.5902 10.4003 14.9105 10.262C15.911 9.8345 17.4095 9.599 18.7625 10.0235C19.472 10.2485 20.1845 10.6685 20.7125 11.384C21.185 12.0215 21.44 12.797 21.491 13.6685L21.5 14V20C21.4996 20.3823 21.3532 20.75 21.0907 21.0281C20.8283 21.3061 20.4696 21.4734 20.0879 21.4958C19.7062 21.5182 19.3304 21.394 19.0373 21.1486C18.7441 20.9032 18.5557 20.5551 18.5105 20.1755L18.5 20V14C18.5 13.505 18.38 13.274 18.302 13.1675C18.1899 13.0284 18.0357 12.9294 17.8625 12.8855C17.3405 12.7205 16.589 12.8075 16.0895 13.0205C15.3395 13.3415 14.6525 13.8455 14.1845 14.312L14 14.51V20C13.9996 20.3823 13.8532 20.75 13.5907 21.0281C13.3283 21.3061 12.9696 21.4734 12.5879 21.4958C12.2062 21.5182 11.8304 21.394 11.5373 21.1486C11.2441 20.9032 11.0557 20.5551 11.0105 20.1755L11 20V11C11 10.6022 11.158 10.2206 11.4393 9.93934C11.7206 9.65804 12.1022 9.5 12.5 9.5ZM8 6.5C8.39782 6.5 8.77936 6.65804 9.06066 6.93934C9.34196 7.22064 9.5 7.60218 9.5 8C9.5 8.39782 9.34196 8.77936 9.06066 9.06066C8.77936 9.34196 8.39782 9.5 8 9.5C7.60218 9.5 7.22064 9.34196 6.93934 9.06066C6.65804 8.77936 6.5 8.39782 6.5 8C6.5 7.60218 6.65804 7.22064 6.93934 6.93934C7.22064 6.65804 7.60218 6.5 8 6.5Z" fill="white"/>
</svg>
