<svg width="29" height="34" viewBox="0 0 29 34" fill="none" xmlns="http://www.w3.org/2000/svg">
<path d="M14.5 16.15C13.1739 16.15 11.9021 15.7022 10.9645 14.9052C10.0268 14.1082 9.5 13.0272 9.5 11.9C9.5 10.7728 10.0268 9.69183 10.9645 8.8948C11.9021 8.09777 13.1739 7.65 14.5 7.65C15.8261 7.65 17.0979 8.09777 18.0355 8.8948C18.9732 9.69183 19.5 10.7728 19.5 11.9C19.5 12.4581 19.3707 13.0108 19.1194 13.5264C18.8681 14.042 18.4998 14.5106 18.0355 14.9052C17.5712 15.2999 17.02 15.6129 16.4134 15.8265C15.8068 16.0401 15.1566 16.15 14.5 16.15ZM14.5 0C10.787 0 7.22601 1.25375 4.6005 3.48543C1.975 5.71711 0.5 8.74392 0.5 11.9C0.5 20.825 14.5 34 14.5 34C14.5 34 28.5 20.825 28.5 11.9C28.5 8.74392 27.025 5.71711 24.3995 3.48543C21.774 1.25375 18.213 0 14.5 0Z" fill="white"/>
</svg>
