<svg width="35" height="34" viewBox="0 0 35 34" fill="none" xmlns="http://www.w3.org/2000/svg">
<path d="M33.8754 26.633L26.1171 19.5791C25.7506 19.2453 25.2686 19.0673 24.7731 19.0826C24.2776 19.0979 23.8075 19.3054 23.4623 19.6612L18.8952 24.3581C17.7958 24.1481 15.5857 23.4592 13.3107 21.1899C11.0357 18.913 10.3468 16.6972 10.1425 15.6055L14.8357 11.0365C15.1915 10.6913 15.399 10.2212 15.4143 9.72571C15.4296 9.23023 15.2515 8.74822 14.9177 8.38171L7.86564 0.625413C7.53173 0.257746 7.06764 0.0347284 6.57194 0.00372506C6.07623 -0.0272783 5.58797 0.136175 5.21085 0.45937L1.06929 4.01116C0.73932 4.34232 0.542373 4.78307 0.515807 5.2498C0.487178 5.72693 -0.0586672 17.0293 8.70541 25.7971C16.3511 33.4408 25.9282 34 28.5658 34C28.9513 34 29.188 33.9886 29.251 33.9847C29.7173 33.9572 30.1573 33.7596 30.4877 33.4293L34.0376 29.2859C34.3621 28.91 34.5268 28.4221 34.4965 27.9265C34.4661 27.4308 34.2433 26.9666 33.8754 26.633Z" fill="white"/>
</svg>
