<svg width="38" height="37" viewBox="0 0 38 37" fill="none" xmlns="http://www.w3.org/2000/svg">
<path fill-rule="evenodd" clip-rule="evenodd" d="M0 34.9444V33.5364C0 32.1283 0.996 30.488 2.228 29.8693L13.548 24.1918C15.19 23.3696 15.572 21.5443 14.388 20.1013L13.664 19.2194C12.192 17.427 11 14.0806 11 11.7372V8.22222C11 6.04155 11.8429 3.9502 13.3431 2.40823C14.8434 0.866267 16.8783 0 19 0C21.1217 0 23.1566 0.866267 24.6569 2.40823C26.1571 3.9502 27 6.04155 27 8.22222V11.7372C27 14.0806 25.8 17.4373 24.336 19.2236L23.614 20.1033C22.434 21.5402 22.802 23.3676 24.452 24.1939L35.772 29.8713C37.002 30.488 38 32.1181 38 33.5364V34.9444C38 35.4896 37.7893 36.0125 37.4142 36.3979C37.0391 36.7834 36.5304 37 36 37H2C1.46957 37 0.960859 36.7834 0.585786 36.3979C0.210714 36.0125 0 35.4896 0 34.9444Z" fill="white"/>
</svg>
