<svg width="30" height="30" viewBox="0 0 30 30" fill="none" xmlns="http://www.w3.org/2000/svg">
<path d="M15 0C16.2825 0 17.598 0.0330001 18.873 0.0870001L20.379 0.159L21.8205 0.2445L23.1705 0.336L24.4035 0.432C25.7418 0.533837 27.0012 1.10465 27.9599 2.0439C28.9187 2.98315 29.5152 4.23059 29.6445 5.5665L29.7045 6.204L29.817 7.569C29.922 8.9835 30 10.5255 30 12C30 13.4745 29.922 15.0165 29.817 16.431L29.7045 17.796L29.6445 18.4335C29.5152 19.7696 28.9184 21.0173 27.9594 21.9566C27.0003 22.8958 25.7405 23.4665 24.402 23.568L23.172 23.6625L21.822 23.7555L20.379 23.841L18.873 23.913C17.5827 23.9689 16.2915 23.9979 15 24C13.7085 23.9979 12.4173 23.9689 11.127 23.913L9.621 23.841L8.1795 23.7555L6.8295 23.6625L5.5965 23.568C4.25822 23.4662 2.9988 22.8953 2.04007 21.9561C1.08133 21.0168 0.484786 19.7694 0.3555 18.4335L0.2955 17.796L0.183 16.431C0.0687491 14.9567 0.00770946 13.4787 0 12C0 10.5255 0.078 8.9835 0.183 7.569L0.2955 6.204L0.3555 5.5665C0.484736 4.23083 1.08107 2.98358 2.03949 2.04436C2.99792 1.10514 4.25699 0.534175 5.595 0.432L6.8265 0.336L8.1765 0.2445L9.6195 0.159L11.1255 0.0870001C12.4163 0.0310908 13.708 0.00208437 15 0ZM15 3C13.7625 3 12.489 3.033 11.25 3.084L9.783 3.1545L8.3745 3.237L7.0515 3.327L5.8395 3.4215C5.20229 3.46611 4.60153 3.73519 4.14399 4.18092C3.68645 4.62666 3.40175 5.22017 3.3405 5.856C3.165 7.6695 3 9.927 3 12C3 14.073 3.165 16.3305 3.3405 18.144C3.468 19.452 4.506 20.469 5.8395 20.5785L7.0515 20.6715L8.3745 20.7615L9.783 20.8455L11.25 20.916C12.489 20.967 13.7625 21 15 21C16.2375 21 17.511 20.967 18.75 20.916L20.217 20.8455L21.6255 20.763L22.9485 20.673L24.1605 20.5785C24.7977 20.5339 25.3985 20.2648 25.856 19.8191C26.3136 19.3733 26.5982 18.7798 26.6595 18.144C26.835 16.3305 27 14.073 27 12C27 9.927 26.835 7.6695 26.6595 5.856C26.5982 5.22017 26.3136 4.62666 25.856 4.18092C25.3985 3.73519 24.7977 3.46611 24.1605 3.4215L22.9485 3.3285L21.6255 3.2385L20.217 3.1545L18.75 3.084C17.5007 3.03038 16.2504 3.00237 15 3ZM12 8.3625C11.9999 8.21589 12.0356 8.07149 12.104 7.94183C12.1725 7.81218 12.2715 7.7012 12.3926 7.61855C12.5137 7.5359 12.6532 7.48409 12.7988 7.46761C12.9445 7.45113 13.092 7.47049 13.2285 7.524L13.35 7.584L19.65 11.22C19.7755 11.2924 19.8816 11.394 19.9594 11.5162C20.0372 11.6383 20.0843 11.7775 20.0968 11.9218C20.1094 12.0661 20.0869 12.2113 20.0313 12.345C19.9757 12.4787 19.8886 12.5971 19.7775 12.69L19.65 12.78L13.35 16.4175C13.223 16.491 13.08 16.5324 12.9334 16.538C12.7868 16.5436 12.6411 16.5133 12.5089 16.4497C12.3767 16.3861 12.262 16.2912 12.1749 16.1731C12.0878 16.0551 12.0308 15.9176 12.009 15.7725L12 15.6375V8.3625Z" fill="white"/>
</svg>
